<?xml version="1.0" encoding="utf-8"?>
<!-- Generator: Adobe Illustrator 26.4.1, SVG Export Plug-In . SVG Version: 6.00 Build 0)  -->
<svg version="1.1" id="Capa_1" xmlns="http://www.w3.org/2000/svg" xmlns:xlink="http://www.w3.org/1999/xlink" x="0px" y="0px"
	 viewBox="0 0 40 40" style="enable-background:new 0 0 40 40;" xml:space="preserve">
<style type="text/css">
	.st0{fill:#E2E3FF;}
	.st1{fill-rule:evenodd;clip-rule:evenodd;fill:#5C60C3;}
	.st2{fill:none;stroke:#5C60C3;stroke-width:0.8;}
	.st3{fill:#181D40;}
</style>
<g>
	<path class="st0" d="M38.2,12.3c0,5.3-4.4,9.7-9.8,9.7s-9.8-4.3-9.8-9.7s4.4-9.7,9.8-9.7S38.2,7,38.2,12.3z"/>
	<path class="st1" d="M27.1,28.7c1.7-1.7,2.7-4.1,2.7-6.7c0-5.3-4.3-9.6-9.6-9.6c-5.3,0-9.6,4.3-9.6,9.6c0,5.3,4.3,9.6,9.6,9.6
		c1.5,0,2.8-0.3,4.1-0.9l2.8,1.5V28.7z M27.7,22.3c0,0-0.4,7.3-7.4,7.3c-7.1,0-7.4-7.3-7.4-7.3H27.7z"/>
	<path class="st2" d="M27.2,22.7c0,0.2-0.1,0.4-0.1,0.6c-0.1,0.7-0.4,1.5-0.9,2.4c-0.9,1.7-2.6,3.4-6,3.4c-3.3,0-5.1-1.7-6-3.4
		c-0.5-0.9-0.7-1.7-0.9-2.4c0-0.2-0.1-0.4-0.1-0.6H27.2z"/>
	<path class="st3" d="M33.5,19.3l-0.7,0c-1.4-5.5-6.6-9.6-12.7-9.6s-11,3.8-12.6,9c1.2,0.4,2.2,2,2.2,3.9c0,1.8-0.8,3.3-2,3.8
		c1.5,4.1,5.1,7.2,9.6,8.1c0.4-0.4,1.1-0.6,1.9-0.6c0.5,0,1,0.1,1.4,0.3c0.4-0.3,0.9-0.4,1.5-0.4c1.3,0,2.3,0.8,2.3,1.8
		s-1,1.8-2.3,1.8c-0.7,0-1.3-0.2-1.7-0.6c-0.3,0.1-0.7,0.2-1.2,0.2c-0.9,0-1.7-0.3-2.1-0.8c-5.2-1-9.4-4.7-11-9.6
		c-1.3-0.4-2.3-2-2.3-4c0-1.8,0.9-3.4,2.1-3.9c1.6-6,7.3-10.5,14-10.5c6.7,0,12.4,4.7,13.8,11H33.5z"/>
</g>
</svg>
